# Alias OBJ Model File
# Exported from SketchUp, (c) 2000-2012 Trimble Navigation Limited
# File units = meters

mtllib e5230e1b-0345-4195-9f18-95cad10e8c94.mtl

g Mesh1 Model

usemtl NCS_S_2570_R
v 2.54685 1.98461 -8.96004
vt 268.846 -8.35451
vn 0.490241 -0.32928 0.806993
v 1.74003 4.4 -7.48434
vt 211.534 92.3562
v 0.665031 1.98461 -7.81685
vt 182.159 -8.35451
f 1/1/1 2/2/1 3/3/1

v 2.80357 4.4 -8.13043
vt 260.526 92.3562
f 2/2/1 1/1/1 4/4/1

usemtl EP_grey__NCS_2005_R80B
v 2.56591 0.300001 -9.21254
vt -257.533 -12.1711
vn -0.851403 -0.0871557 0.51722
vt -216.264 149.863
vt -249.426 54.4053
f 5/5/2 4/6/2 1/7/2

v 3.91641 4.4 -6.29858
vt -131.879 149.863
f 5/5/2 6/8/2 4/6/2

v 5.06093 0.300001 -5.10545
vt -68.3382 -12.1711
f 6/8/2 5/5/2 7/9/2

v 2.56591 0.200001 -9.21254
vt -257.533 7.87408
vn -0.854656 3.72628e-08 0.519195
vt -68.3382 11.8111
vt -257.533 11.8111
f 8/10/3 7/11/3 5/12/3

v 6.35788 0.200001 -2.97052
vt 30.0084 7.87408
f 9/13/3 7/11/3 8/10/3

v 6.35788 0.300001 -2.97052
vt 30.0084 11.8111
f 7/11/3 9/13/3 10/14/3

v 8.16244 0.200001 -3.66442e-11
vt 166.847 7.87407
vn -0.854656 -5.77995e-09 0.519195
vt 30.0084 7.87407
f 11/15/4 10/14/4 9/16/4

v 8.16244 0.300001 -0
vt 166.847 11.8111
f 10/14/4 11/15/4 12/17/4

v 8.16244 4.418 -3.92604e-11
vt 166.847 173.937
vn -0.854656 1.33569e-10 0.519195
f 13/18/5 10/14/5 12/17/5

v 6.35788 4.4 -2.97052
vt 30.0084 173.228
f 10/14/5 13/18/5 14/19/5

v 6.35788 4.418 -2.97052
vt 30.0084 173.937
f 14/19/5 13/18/5 15/20/5

vn -0.854656 -3.29868e-12 0.519195
v 5.3267 4.4 -4.66795
vt -48.1848 173.228
f 15/20/6 16/21/6 14/19/6

v 5.3267 4.90024 -4.66795
vt -48.1848 192.923
f 16/21/6 15/20/6 17/22/6

v 6.35788 4.90024 -2.97052
vt 30.0084 192.923
f 17/22/6 15/20/6 18/23/6

v 3.91641 4.90024 -6.29858
vt -86.694 192.923
vn -0.756358 3.23885e-17 0.654158
vt -1.81633 173.228
vt -1.81633 192.923
f 19/24/7 16/25/7 17/26/7

vt -86.694 173.228
f 16/25/7 19/24/7 6/27/7

v 2.80357 4.90024 -8.13043
vt -216.264 192.923
vn -0.854656 -1.37464e-17 0.519195
vt -131.879 173.228
vt -131.879 192.923
f 20/28/8 6/29/8 19/30/8

vt -216.264 173.228
f 6/29/8 20/28/8 4/31/8

v 1.74003 4.90024 -7.48434
vt 211.534 192.923
vn 0.519195 -4.23404e-18 0.854656
vt 260.526 173.228
vt 260.526 192.923
f 21/32/9 4/33/9 20/34/9

vt 211.534 173.228
f 4/33/9 21/32/9 2/35/9

v 2.59391 4.90024 -3.50325
vt 113.44 192.923
vn 0.977763 2.66243e-17 -0.209715
vt 273.74 173.228
vt 273.74 192.923
f 22/36/10 2/37/10 21/38/10

v 2.59391 4.4 -3.50325
vt 113.44 173.228
f 2/37/10 22/36/10 23/39/10

v 3.76518 4.90024 -1.51015
vt -23.8453 192.923
vn 0.86215 -9.95301e-17 -0.506653
vt 67.17 173.228
vt 67.17 192.923
f 24/40/11 23/41/11 22/42/11

v 3.76518 4.40024 -1.51015
vt -23.8453 173.238
f 23/41/11 24/40/11 25/43/11

usemtl EP_sand___NCS_0505_Y20R
v 3.34537 4.90024 -1.25511
vt 3.51078 4.90024
vn 0.519195 1.57822e-14 0.854656
vt 4.00199 4.40024
vt 4.00199 4.90024
f 26/44/12 25/45/12 24/46/12

v 3.17896 0.300001 -1.15402
vt 3.31608 0.300001
f 26/44/12 27/47/12 25/45/12

v 2.51822 0 -0.752624
vt 2.54297 -1.04827e-14
f 28/48/12 27/47/12 26/44/12

v 3.17896 7.65992e-08 -1.15402
vt 3.31608 7.65992e-08
f 27/47/12 28/48/12 29/49/12

v 3.17896 0.200001 -1.15402
vt 3.31608 0.200001
f 27/47/12 29/49/12 30/50/12

usemtl NCS_S_2570_R
v 0.368182 0.200001 -5.93719
vt 194.183 7.87407
vn 0.862159 1.50575e-16 -0.506638
vt -24.2376 11.8111
vt -24.2376 7.87407
f 31/51/13 27/52/13 30/53/13

v 0.368182 0.300001 -5.93719
vt 194.183 11.8111
f 27/52/13 31/51/13 32/54/13

usemtl EP_grey__NCS_2005_R80B
v 5.68902e-12 0.200001 -7.65377
vt 294.629 7.87407
vn 0.977763 1.79912e-11 -0.209715
vt 225.51 11.8111
vt 225.51 7.87407
f 33/55/14 32/56/14 31/57/14

v 3.60956e-16 0.300001 -7.65377
vt 294.629 11.8111
f 32/56/14 33/55/14 34/58/14

usemtl NCS_S_2570_R
vt 274.649 7.87407
vn 0.519195 3.1381e-09 0.854656
vt 156.449 11.8111
vt 156.449 7.87407
f 8/59/15 34/60/15 33/61/15

vt 274.649 11.8111
f 34/60/15 8/59/15 5/62/15

vt 274.649 -19.5214
vn 0.51536 -0.121325 0.848342
vt 182.159 47.2953
vt 156.449 -19.5214
f 5/63/16 3/64/16 34/65/16

vt 268.846 47.2953
f 3/64/16 5/63/16 1/66/16

usemtl EP_grey__NCS_2005_R80B
vt 273.74 208.961
vn 0.905851 -0.376411 -0.194291
vt 294.629 34.7291
vt 295.416 106.317
f 2/67/17 34/68/17 3/69/17

vt 225.51 34.7291
f 2/67/17 32/70/17 34/68/17

vt 113.44 208.961
f 32/70/17 2/67/17 23/71/17

usemtl NCS_S_2570_R
vt -23.8426 196.918
vn 0.850345 -0.164978 -0.499696
vt 194.183 33.2485
vt 67.1727 196.908
f 25/72/18 32/73/18 23/74/18

vt -24.2376 33.2485
f 32/73/18 25/72/18 27/75/18

vt -86.694 167.4
vn -0.756194 -0.0207688 0.654017
vt -21.6888 5.94776
vt -1.81633 167.4
f 6/76/19 7/77/19 16/78/19

usemtl EP_grey__NCS_2005_R80B
vn -0.854656 1.03569e-09 0.519195
f 7/11/20 14/19/20 16/21/20

f 14/19/20 7/11/20 10/14/20

