{
	"asset":{
		"generator":"Khronos glTF Blender I/O v3.6.27",
		"version":"2.0"
	},
	"scene":0,
	"scenes":[
		{
			"name":"Scene",
			"nodes":[
				0
			]
		}
	],
	"nodes":[
		{
			"mesh":0,
			"name":"Plane"
		}
	],
	"materials":[
		{
			"doubleSided":true,
			"name":"Material",
			"pbrMetallicRoughness":{
				"baseColorFactor":[
					0.007855681702494621,
					0.06685589253902435,
					1,
					1
				],
				"metallicFactor":0,
				"roughnessFactor":0.5
			}
		},
		{
			"doubleSided":true,
			"name":"Material.002",
			"pbrMetallicRoughness":{
				"metallicFactor":0,
				"roughnessFactor":0.5
			}
		},
		{
			"doubleSided":true,
			"name":"Material.003",
			"pbrMetallicRoughness":{
				"baseColorFactor":[
					1,
					0.018692906945943832,
					0.015975402668118477,
					1
				],
				"metallicFactor":0,
				"roughnessFactor":0.5
			}
		}
	],
	"meshes":[
		{
			"name":"Plane",
			"primitives":[
				{
					"attributes":{
						"POSITION":0,
						"NORMAL":1,
						"TEXCOORD_0":2
					},
					"indices":3,
					"material":0
				},
				{
					"attributes":{
						"POSITION":4,
						"NORMAL":5,
						"TEXCOORD_0":6
					},
					"indices":7,
					"material":1
				},
				{
					"attributes":{
						"POSITION":8,
						"NORMAL":9,
						"TEXCOORD_0":10
					},
					"indices":11,
					"material":2
				}
			]
		}
	],
	"accessors":[
		{
			"bufferView":0,
			"componentType":5126,
			"count":7,
			"max":[
				9.882987022399902,
				13.30000114440918,
				-10.795111656188965
			],
			"min":[
				3.4305899143218994,
				0,
				-20.433387756347656
			],
			"type":"VEC3"
		},
		{
			"bufferView":1,
			"componentType":5126,
			"count":7,
			"type":"VEC3"
		},
		{
			"bufferView":2,
			"componentType":5126,
			"count":7,
			"type":"VEC2"
		},
		{
			"bufferView":3,
			"componentType":5123,
			"count":9,
			"type":"SCALAR"
		},
		{
			"bufferView":4,
			"componentType":5126,
			"count":60,
			"max":[
				9.382987022399902,
				13.30000114440918,
				1
			],
			"min":[
				-2.299999952316284,
				0,
				-20.865488052368164
			],
			"type":"VEC3"
		},
		{
			"bufferView":5,
			"componentType":5126,
			"count":60,
			"type":"VEC3"
		},
		{
			"bufferView":6,
			"componentType":5126,
			"count":60,
			"type":"VEC2"
		},
		{
			"bufferView":7,
			"componentType":5123,
			"count":96,
			"type":"SCALAR"
		},
		{
			"bufferView":8,
			"componentType":5126,
			"count":12,
			"max":[
				-0.8799999356269836,
				13.300000190734863,
				-3.2599997520446777
			],
			"min":[
				-2.299999952316284,
				0,
				-13.15999984741211
			],
			"type":"VEC3"
		},
		{
			"bufferView":9,
			"componentType":5126,
			"count":12,
			"type":"VEC3"
		},
		{
			"bufferView":10,
			"componentType":5126,
			"count":12,
			"type":"VEC2"
		},
		{
			"bufferView":11,
			"componentType":5123,
			"count":18,
			"type":"SCALAR"
		}
	],
	"bufferViews":[
		{
			"buffer":0,
			"byteLength":84,
			"byteOffset":0,
			"target":34962
		},
		{
			"buffer":0,
			"byteLength":84,
			"byteOffset":84,
			"target":34962
		},
		{
			"buffer":0,
			"byteLength":56,
			"byteOffset":168,
			"target":34962
		},
		{
			"buffer":0,
			"byteLength":18,
			"byteOffset":224,
			"target":34963
		},
		{
			"buffer":0,
			"byteLength":720,
			"byteOffset":244,
			"target":34962
		},
		{
			"buffer":0,
			"byteLength":720,
			"byteOffset":964,
			"target":34962
		},
		{
			"buffer":0,
			"byteLength":480,
			"byteOffset":1684,
			"target":34962
		},
		{
			"buffer":0,
			"byteLength":192,
			"byteOffset":2164,
			"target":34963
		},
		{
			"buffer":0,
			"byteLength":144,
			"byteOffset":2356,
			"target":34962
		},
		{
			"buffer":0,
			"byteLength":144,
			"byteOffset":2500,
			"target":34962
		},
		{
			"buffer":0,
			"byteLength":96,
			"byteOffset":2644,
			"target":34962
		},
		{
			"buffer":0,
			"byteLength":36,
			"byteOffset":2740,
			"target":34963
		}
	],
	"buffers":[
		{
			"byteLength":2776,
			"uri":"data:application/octet-stream;base64,"
		}
	]
}
